# xmcd
#
# Track frame offsets: 
#        150
#        35853
#        60398
#        86629
#        121090
#        147404
#        166511
#        190942
#        212836
#        235766
#        264939
#        283728
#
# Disc length: 4118 seconds
#
# Revision: 0
# Processed by: cddbd v1.5.2PL0 Copyright (c) Steve Scherf et al.
# Submitted via: ExactAudioCopy v0.95b4
#
DISCID=a610140c
DTITLE=Herbie Hancock - Then And Now - The Definitive Herbie Hancock
DYEAR=2008
DGENRE=Jazz
TTITLE0=MAIDEN VOYAGE
TTITLE1=CANTALOUPE ISLAND
TTITLE2=WIGGLE WAGGLE
TTITLE3=CHAMELEON (EDIT)
TTITLE4=ST. LOUIS BLUES
TTITLE5=CHAN'S SONG (NEVER SAID)
TTITLE6=RIVER
TTITLE7=DON'T EXPLAIN
TTITLE8=ALL APOLOGIES
TTITLE9=WATERMELON MAN
TTITLE10=ROCKIT (LIVE)
TTITLE11=RIVER (LIVE)
EXTD=
EXTT0=
EXTT1=
EXTT2=
EXTT3=
EXTT4=
EXTT5=
EXTT6=
EXTT7=
EXTT8=
EXTT9=
EXTT10=
EXTT11=
PLAYORDER=
